<svg xmlns="http://www.w3.org/2000/svg" viewBox="0 0 820 760"><rect width="820" height="760" fill="#ffffff"/><text x="410.0" y="34" text-anchor="middle" font-family="Arial" font-size="19" font-weight="700" fill="#172033">Корреляции разрешенных признаков</text><text transform="translate(221.0,658) rotate(45)" text-anchor="start" font-family="Arial" font-size="11" fill="#627084">длина ответа</text><text x="180" y="116.0" text-anchor="end" font-family="Arial" font-size="11" fill="#627084">длина ответа</text><text transform="translate(283.0,658) rotate(45)" text-anchor="start" font-family="Arial" font-size="11" fill="#627084">answer_words</text><text x="180" y="178.0" text-anchor="end" font-family="Arial" font-size="11" fill="#627084">answer_words</text><text transform="translate(345.0,658) rotate(45)" text-anchor="start" font-family="Arial" font-size="11" fill="#627084">длина описания</text><text x="180" y="240.0" text-anchor="end" font-family="Arial" font-size="11" fill="#627084">длина описания</text><text transform="translate(407.0,658) rotate(45)" text-anchor="start" font-family="Arial" font-size="11" fill="#627084">description_words</text><text x="180" y="302.0" text-anchor="end" font-family="Arial" font-size="11" fill="#627084">description_words</text><text transform="translate(469.0,658) rotate(45)" text-anchor="start" font-family="Arial" font-size="11" fill="#627084">variant_количество</text><text x="180" y="364.0" text-anchor="end" font-family="Arial" font-size="11" fill="#627084">variant_количество</text><text transform="translate(531.0,658) rotate(45)" text-anchor="start" font-family="Arial" font-size="11" fill="#627084">vowel_ratio</text><text x="180" y="426.0" text-anchor="end" font-family="Arial" font-size="11" fill="#627084">vowel_ratio</text><text transform="translate(593.0,658) rotate(45)" text-anchor="start" font-family="Arial" font-size="11" fill="#627084">rare_ratio</text><text x="180" y="488.0" text-anchor="end" font-family="Arial" font-size="11" fill="#627084">rare_ratio</text><text transform="translate(655.0,658) rotate(45)" text-anchor="start" font-family="Arial" font-size="11" fill="#627084">rebus_terms</text><text x="180" y="550.0" text-anchor="end" font-family="Arial" font-size="11" fill="#627084">rebus_terms</text><text transform="translate(717.0,658) rotate(45)" text-anchor="start" font-family="Arial" font-size="11" fill="#627084">сложность</text><text x="180" y="612.0" text-anchor="end" font-family="Arial" font-size="11" fill="#627084">сложность</text><rect x="190" y="80" width="62" height="62" fill="rgb(140,145,255)" stroke="#ffffff"/><text x="221.0" y="115.96000000000001" text-anchor="middle" font-family="Arial" font-size="11" fill="#172033">1.00</text><rect x="252" y="80" width="62" height="62" fill="rgb(168,173,255)" stroke="#ffffff"/><text x="283.0" y="115.96000000000001" text-anchor="middle" font-family="Arial" font-size="11" fill="#172033">0.73</text><rect x="314" y="80" width="62" height="62" fill="rgb(217,222,255)" stroke="#ffffff"/><text x="345.0" y="115.96000000000001" text-anchor="middle" font-family="Arial" font-size="11" fill="#172033">0.26</text><rect x="376" y="80" width="62" height="62" fill="rgb(228,233,255)" stroke="#ffffff"/><text x="407.0" y="115.96000000000001" text-anchor="middle" font-family="Arial" font-size="11" fill="#172033">0.15</text><rect x="438" y="80" width="62" height="62" fill="rgb(233,238,255)" stroke="#ffffff"/><text x="469.0" y="115.96000000000001" text-anchor="middle" font-family="Arial" font-size="11" fill="#172033">0.11</text><rect x="500" y="80" width="62" height="62" fill="rgb(255,251,241)" stroke="#ffffff"/><text x="531.0" y="115.96000000000001" text-anchor="middle" font-family="Arial" font-size="11" fill="#172033">-0.03</text><rect x="562" y="80" width="62" height="62" fill="rgb(255,249,239)" stroke="#ffffff"/><text x="593.0" y="115.96000000000001" text-anchor="middle" font-family="Arial" font-size="11" fill="#172033">-0.05</text><rect x="624" y="80" width="62" height="62" fill="rgb(255,244,234)" stroke="#ffffff"/><text x="655.0" y="115.96000000000001" text-anchor="middle" font-family="Arial" font-size="11" fill="#172033">-0.10</text><rect x="686" y="80" width="62" height="62" fill="rgb(220,225,255)" stroke="#ffffff"/><text x="717.0" y="115.96000000000001" text-anchor="middle" font-family="Arial" font-size="11" fill="#172033">0.24</text><rect x="190" y="142" width="62" height="62" fill="rgb(168,173,255)" stroke="#ffffff"/><text x="221.0" y="177.96" text-anchor="middle" font-family="Arial" font-size="11" fill="#172033">0.73</text><rect x="252" y="142" width="62" height="62" fill="rgb(139,144,255)" stroke="#ffffff"/><text x="283.0" y="177.96" text-anchor="middle" font-family="Arial" font-size="11" fill="#172033">1.00</text><rect x="314" y="142" width="62" height="62" fill="rgb(221,226,255)" stroke="#ffffff"/><text x="345.0" y="177.96" text-anchor="middle" font-family="Arial" font-size="11" fill="#172033">0.23</text><rect x="376" y="142" width="62" height="62" fill="rgb(229,234,255)" stroke="#ffffff"/><text x="407.0" y="177.96" text-anchor="middle" font-family="Arial" font-size="11" fill="#172033">0.14</text><rect x="438" y="142" width="62" height="62" fill="rgb(214,219,255)" stroke="#ffffff"/><text x="469.0" y="177.96" text-anchor="middle" font-family="Arial" font-size="11" fill="#172033">0.29</text><rect x="500" y="142" width="62" height="62" fill="rgb(255,250,240)" stroke="#ffffff"/><text x="531.0" y="177.96" text-anchor="middle" font-family="Arial" font-size="11" fill="#172033">-0.05</text><rect x="562" y="142" width="62" height="62" fill="rgb(255,253,243)" stroke="#ffffff"/><text x="593.0" y="177.96" text-anchor="middle" font-family="Arial" font-size="11" fill="#172033">-0.01</text><rect x="624" y="142" width="62" height="62" fill="rgb(255,245,235)" stroke="#ffffff"/><text x="655.0" y="177.96" text-anchor="middle" font-family="Arial" font-size="11" fill="#172033">-0.10</text><rect x="686" y="142" width="62" height="62" fill="rgb(230,235,255)" stroke="#ffffff"/><text x="717.0" y="177.96" text-anchor="middle" font-family="Arial" font-size="11" fill="#172033">0.13</text><rect x="190" y="204" width="62" height="62" fill="rgb(217,222,255)" stroke="#ffffff"/><text x="221.0" y="239.96" text-anchor="middle" font-family="Arial" font-size="11" fill="#172033">0.26</text><rect x="252" y="204" width="62" height="62" fill="rgb(221,226,255)" stroke="#ffffff"/><text x="283.0" y="239.96" text-anchor="middle" font-family="Arial" font-size="11" fill="#172033">0.23</text><rect x="314" y="204" width="62" height="62" fill="rgb(139,144,255)" stroke="#ffffff"/><text x="345.0" y="239.96" text-anchor="middle" font-family="Arial" font-size="11" fill="#172033">1.00</text><rect x="376" y="204" width="62" height="62" fill="rgb(148,153,255)" stroke="#ffffff"/><text x="407.0" y="239.96" text-anchor="middle" font-family="Arial" font-size="11" fill="#172033">0.92</text><rect x="438" y="204" width="62" height="62" fill="rgb(225,230,255)" stroke="#ffffff"/><text x="469.0" y="239.96" text-anchor="middle" font-family="Arial" font-size="11" fill="#172033">0.19</text><rect x="500" y="204" width="62" height="62" fill="rgb(255,249,239)" stroke="#ffffff"/><text x="531.0" y="239.96" text-anchor="middle" font-family="Arial" font-size="11" fill="#172033">-0.05</text><rect x="562" y="204" width="62" height="62" fill="rgb(255,247,237)" stroke="#ffffff"/><text x="593.0" y="239.96" text-anchor="middle" font-family="Arial" font-size="11" fill="#172033">-0.07</text><rect x="624" y="204" width="62" height="62" fill="rgb(239,244,255)" stroke="#ffffff"/><text x="655.0" y="239.96" text-anchor="middle" font-family="Arial" font-size="11" fill="#172033">0.06</text><rect x="686" y="204" width="62" height="62" fill="rgb(212,217,255)" stroke="#ffffff"/><text x="717.0" y="239.96" text-anchor="middle" font-family="Arial" font-size="11" fill="#172033">0.31</text><rect x="190" y="266" width="62" height="62" fill="rgb(228,233,255)" stroke="#ffffff"/><text x="221.0" y="301.96" text-anchor="middle" font-family="Arial" font-size="11" fill="#172033">0.15</text><rect x="252" y="266" width="62" height="62" fill="rgb(229,234,255)" stroke="#ffffff"/><text x="283.0" y="301.96" text-anchor="middle" font-family="Arial" font-size="11" fill="#172033">0.14</text><rect x="314" y="266" width="62" height="62" fill="rgb(148,153,255)" stroke="#ffffff"/><text x="345.0" y="301.96" text-anchor="middle" font-family="Arial" font-size="11" fill="#172033">0.92</text><rect x="376" y="266" width="62" height="62" fill="rgb(140,145,255)" stroke="#ffffff"/><text x="407.0" y="301.96" text-anchor="middle" font-family="Arial" font-size="11" fill="#172033">1.00</text><rect x="438" y="266" width="62" height="62" fill="rgb(226,231,255)" stroke="#ffffff"/><text x="469.0" y="301.96" text-anchor="middle" font-family="Arial" font-size="11" fill="#172033">0.17</text><rect x="500" y="266" width="62" height="62" fill="rgb(255,251,241)" stroke="#ffffff"/><text x="531.0" y="301.96" text-anchor="middle" font-family="Arial" font-size="11" fill="#172033">-0.04</text><rect x="562" y="266" width="62" height="62" fill="rgb(255,253,243)" stroke="#ffffff"/><text x="593.0" y="301.96" text-anchor="middle" font-family="Arial" font-size="11" fill="#172033">-0.02</text><rect x="624" y="266" width="62" height="62" fill="rgb(234,239,255)" stroke="#ffffff"/><text x="655.0" y="301.96" text-anchor="middle" font-family="Arial" font-size="11" fill="#172033">0.10</text><rect x="686" y="266" width="62" height="62" fill="rgb(219,224,255)" stroke="#ffffff"/><text x="717.0" y="301.96" text-anchor="middle" font-family="Arial" font-size="11" fill="#172033">0.25</text><rect x="190" y="328" width="62" height="62" fill="rgb(233,238,255)" stroke="#ffffff"/><text x="221.0" y="363.96" text-anchor="middle" font-family="Arial" font-size="11" fill="#172033">0.11</text><rect x="252" y="328" width="62" height="62" fill="rgb(214,219,255)" stroke="#ffffff"/><text x="283.0" y="363.96" text-anchor="middle" font-family="Arial" font-size="11" fill="#172033">0.29</text><rect x="314" y="328" width="62" height="62" fill="rgb(225,230,255)" stroke="#ffffff"/><text x="345.0" y="363.96" text-anchor="middle" font-family="Arial" font-size="11" fill="#172033">0.19</text><rect x="376" y="328" width="62" height="62" fill="rgb(226,231,255)" stroke="#ffffff"/><text x="407.0" y="363.96" text-anchor="middle" font-family="Arial" font-size="11" fill="#172033">0.17</text><rect x="438" y="328" width="62" height="62" fill="rgb(140,145,255)" stroke="#ffffff"/><text x="469.0" y="363.96" text-anchor="middle" font-family="Arial" font-size="11" fill="#172033">1.00</text><rect x="500" y="328" width="62" height="62" fill="rgb(255,250,240)" stroke="#ffffff"/><text x="531.0" y="363.96" text-anchor="middle" font-family="Arial" font-size="11" fill="#172033">-0.04</text><rect x="562" y="328" width="62" height="62" fill="rgb(255,248,238)" stroke="#ffffff"/><text x="593.0" y="363.96" text-anchor="middle" font-family="Arial" font-size="11" fill="#172033">-0.06</text><rect x="624" y="328" width="62" height="62" fill="rgb(240,245,255)" stroke="#ffffff"/><text x="655.0" y="363.96" text-anchor="middle" font-family="Arial" font-size="11" fill="#172033">0.04</text><rect x="686" y="328" width="62" height="62" fill="rgb(234,239,255)" stroke="#ffffff"/><text x="717.0" y="363.96" text-anchor="middle" font-family="Arial" font-size="11" fill="#172033">0.10</text><rect x="190" y="390" width="62" height="62" fill="rgb(255,251,241)" stroke="#ffffff"/><text x="221.0" y="425.96" text-anchor="middle" font-family="Arial" font-size="11" fill="#172033">-0.03</text><rect x="252" y="390" width="62" height="62" fill="rgb(255,250,240)" stroke="#ffffff"/><text x="283.0" y="425.96" text-anchor="middle" font-family="Arial" font-size="11" fill="#172033">-0.05</text><rect x="314" y="390" width="62" height="62" fill="rgb(255,249,239)" stroke="#ffffff"/><text x="345.0" y="425.96" text-anchor="middle" font-family="Arial" font-size="11" fill="#172033">-0.05</text><rect x="376" y="390" width="62" height="62" fill="rgb(255,251,241)" stroke="#ffffff"/><text x="407.0" y="425.96" text-anchor="middle" font-family="Arial" font-size="11" fill="#172033">-0.04</text><rect x="438" y="390" width="62" height="62" fill="rgb(255,250,240)" stroke="#ffffff"/><text x="469.0" y="425.96" text-anchor="middle" font-family="Arial" font-size="11" fill="#172033">-0.04</text><rect x="500" y="390" width="62" height="62" fill="rgb(140,145,255)" stroke="#ffffff"/><text x="531.0" y="425.96" text-anchor="middle" font-family="Arial" font-size="11" fill="#172033">1.00</text><rect x="562" y="390" width="62" height="62" fill="rgb(255,253,243)" stroke="#ffffff"/><text x="593.0" y="425.96" text-anchor="middle" font-family="Arial" font-size="11" fill="#172033">-0.01</text><rect x="624" y="390" width="62" height="62" fill="rgb(237,242,255)" stroke="#ffffff"/><text x="655.0" y="425.96" text-anchor="middle" font-family="Arial" font-size="11" fill="#172033">0.07</text><rect x="686" y="390" width="62" height="62" fill="rgb(255,254,244)" stroke="#ffffff"/><text x="717.0" y="425.96" text-anchor="middle" font-family="Arial" font-size="11" fill="#172033">-0.01</text><rect x="190" y="452" width="62" height="62" fill="rgb(255,249,239)" stroke="#ffffff"/><text x="221.0" y="487.96" text-anchor="middle" font-family="Arial" font-size="11" fill="#172033">-0.05</text><rect x="252" y="452" width="62" height="62" fill="rgb(255,253,243)" stroke="#ffffff"/><text x="283.0" y="487.96" text-anchor="middle" font-family="Arial" font-size="11" fill="#172033">-0.01</text><rect x="314" y="452" width="62" height="62" fill="rgb(255,247,237)" stroke="#ffffff"/><text x="345.0" y="487.96" text-anchor="middle" font-family="Arial" font-size="11" fill="#172033">-0.07</text><rect x="376" y="452" width="62" height="62" fill="rgb(255,253,243)" stroke="#ffffff"/><text x="407.0" y="487.96" text-anchor="middle" font-family="Arial" font-size="11" fill="#172033">-0.02</text><rect x="438" y="452" width="62" height="62" fill="rgb(255,248,238)" stroke="#ffffff"/><text x="469.0" y="487.96" text-anchor="middle" font-family="Arial" font-size="11" fill="#172033">-0.06</text><rect x="500" y="452" width="62" height="62" fill="rgb(255,253,243)" stroke="#ffffff"/><text x="531.0" y="487.96" text-anchor="middle" font-family="Arial" font-size="11" fill="#172033">-0.01</text><rect x="562" y="452" width="62" height="62" fill="rgb(140,145,255)" stroke="#ffffff"/><text x="593.0" y="487.96" text-anchor="middle" font-family="Arial" font-size="11" fill="#172033">1.00</text><rect x="624" y="452" width="62" height="62" fill="rgb(255,251,241)" stroke="#ffffff"/><text x="655.0" y="487.96" text-anchor="middle" font-family="Arial" font-size="11" fill="#172033">-0.04</text><rect x="686" y="452" width="62" height="62" fill="rgb(255,245,235)" stroke="#ffffff"/><text x="717.0" y="487.96" text-anchor="middle" font-family="Arial" font-size="11" fill="#172033">-0.09</text><rect x="190" y="514" width="62" height="62" fill="rgb(255,244,234)" stroke="#ffffff"/><text x="221.0" y="549.96" text-anchor="middle" font-family="Arial" font-size="11" fill="#172033">-0.10</text><rect x="252" y="514" width="62" height="62" fill="rgb(255,245,235)" stroke="#ffffff"/><text x="283.0" y="549.96" text-anchor="middle" font-family="Arial" font-size="11" fill="#172033">-0.10</text><rect x="314" y="514" width="62" height="62" fill="rgb(239,244,255)" stroke="#ffffff"/><text x="345.0" y="549.96" text-anchor="middle" font-family="Arial" font-size="11" fill="#172033">0.06</text><rect x="376" y="514" width="62" height="62" fill="rgb(234,239,255)" stroke="#ffffff"/><text x="407.0" y="549.96" text-anchor="middle" font-family="Arial" font-size="11" fill="#172033">0.10</text><rect x="438" y="514" width="62" height="62" fill="rgb(240,245,255)" stroke="#ffffff"/><text x="469.0" y="549.96" text-anchor="middle" font-family="Arial" font-size="11" fill="#172033">0.04</text><rect x="500" y="514" width="62" height="62" fill="rgb(237,242,255)" stroke="#ffffff"/><text x="531.0" y="549.96" text-anchor="middle" font-family="Arial" font-size="11" fill="#172033">0.07</text><rect x="562" y="514" width="62" height="62" fill="rgb(255,251,241)" stroke="#ffffff"/><text x="593.0" y="549.96" text-anchor="middle" font-family="Arial" font-size="11" fill="#172033">-0.04</text><rect x="624" y="514" width="62" height="62" fill="rgb(140,145,255)" stroke="#ffffff"/><text x="655.0" y="549.96" text-anchor="middle" font-family="Arial" font-size="11" fill="#172033">1.00</text><rect x="686" y="514" width="62" height="62" fill="rgb(255,253,243)" stroke="#ffffff"/><text x="717.0" y="549.96" text-anchor="middle" font-family="Arial" font-size="11" fill="#172033">-0.02</text><rect x="190" y="576" width="62" height="62" fill="rgb(220,225,255)" stroke="#ffffff"/><text x="221.0" y="611.96" text-anchor="middle" font-family="Arial" font-size="11" fill="#172033">0.24</text><rect x="252" y="576" width="62" height="62" fill="rgb(230,235,255)" stroke="#ffffff"/><text x="283.0" y="611.96" text-anchor="middle" font-family="Arial" font-size="11" fill="#172033">0.13</text><rect x="314" y="576" width="62" height="62" fill="rgb(212,217,255)" stroke="#ffffff"/><text x="345.0" y="611.96" text-anchor="middle" font-family="Arial" font-size="11" fill="#172033">0.31</text><rect x="376" y="576" width="62" height="62" fill="rgb(219,224,255)" stroke="#ffffff"/><text x="407.0" y="611.96" text-anchor="middle" font-family="Arial" font-size="11" fill="#172033">0.25</text><rect x="438" y="576" width="62" height="62" fill="rgb(234,239,255)" stroke="#ffffff"/><text x="469.0" y="611.96" text-anchor="middle" font-family="Arial" font-size="11" fill="#172033">0.10</text><rect x="500" y="576" width="62" height="62" fill="rgb(255,254,244)" stroke="#ffffff"/><text x="531.0" y="611.96" text-anchor="middle" font-family="Arial" font-size="11" fill="#172033">-0.01</text><rect x="562" y="576" width="62" height="62" fill="rgb(255,245,235)" stroke="#ffffff"/><text x="593.0" y="611.96" text-anchor="middle" font-family="Arial" font-size="11" fill="#172033">-0.09</text><rect x="624" y="576" width="62" height="62" fill="rgb(255,253,243)" stroke="#ffffff"/><text x="655.0" y="611.96" text-anchor="middle" font-family="Arial" font-size="11" fill="#172033">-0.02</text><rect x="686" y="576" width="62" height="62" fill="rgb(140,145,255)" stroke="#ffffff"/><text x="717.0" y="611.96" text-anchor="middle" font-family="Arial" font-size="11" fill="#172033">1.00</text></svg>