<svg xmlns="http://www.w3.org/2000/svg" viewBox="0 0 760 420"><rect width="760" height="420" fill="#ffffff"/><text x="380.0" y="28" text-anchor="middle" font-family="Arial" font-size="18" font-weight="700" fill="#172033">Распределение длины ответа</text><line x1="62" y1="362" x2="732" y2="362" stroke="#172033" stroke-width="1.5"/><line x1="62" y1="362" x2="62" y2="54" stroke="#172033" stroke-width="1.5"/><text x="397.0" y="404" text-anchor="middle" font-family="Arial" font-size="13" fill="#627084">длина ответа</text><text transform="translate(18,208.0) rotate(-90)" text-anchor="middle" font-family="Arial" font-size="13" fill="#627084">количество</text><line x1="62" y1="362.0" x2="732" y2="362.0" stroke="#d7dde6" stroke-width="1"/><text x="54" y="366.0" text-anchor="end" font-family="Arial" font-size="11" fill="#627084">0</text><line x1="62" y1="285.0" x2="732" y2="285.0" stroke="#d7dde6" stroke-width="1"/><text x="54" y="289.0" text-anchor="end" font-family="Arial" font-size="11" fill="#627084">18</text><line x1="62" y1="208.0" x2="732" y2="208.0" stroke="#d7dde6" stroke-width="1"/><text x="54" y="212.0" text-anchor="end" font-family="Arial" font-size="11" fill="#627084">37</text><line x1="62" y1="131.0" x2="732" y2="131.0" stroke="#d7dde6" stroke-width="1"/><text x="54" y="135.0" text-anchor="end" font-family="Arial" font-size="11" fill="#627084">56</text><line x1="62" y1="54.0" x2="732" y2="54.0" stroke="#d7dde6" stroke-width="1"/><text x="54" y="58.0" text-anchor="end" font-family="Arial" font-size="11" fill="#627084">74</text><rect x="63.0" y="183.0" width="35.2" height="179.0" fill="#df7b32" opacity="0.86"/><rect x="100.2" y="128.9" width="35.2" height="233.1" fill="#df7b32" opacity="0.86"/><rect x="137.4" y="54.0" width="35.2" height="308.0" fill="#df7b32" opacity="0.86"/><rect x="174.7" y="124.8" width="35.2" height="237.2" fill="#df7b32" opacity="0.86"/><rect x="211.9" y="241.3" width="35.2" height="120.7" fill="#df7b32" opacity="0.86"/><rect x="249.1" y="287.1" width="35.2" height="74.9" fill="#df7b32" opacity="0.86"/><rect x="286.3" y="307.9" width="35.2" height="54.1" fill="#df7b32" opacity="0.86"/><rect x="323.6" y="320.4" width="35.2" height="41.6" fill="#df7b32" opacity="0.86"/><rect x="360.8" y="332.9" width="35.2" height="29.1" fill="#df7b32" opacity="0.86"/><rect x="398.0" y="357.8" width="35.2" height="4.2" fill="#df7b32" opacity="0.86"/><rect x="435.2" y="324.5" width="35.2" height="37.5" fill="#df7b32" opacity="0.86"/><rect x="472.4" y="349.5" width="35.2" height="12.5" fill="#df7b32" opacity="0.86"/><rect x="509.7" y="357.8" width="35.2" height="4.2" fill="#df7b32" opacity="0.86"/><rect x="546.9" y="345.4" width="35.2" height="16.6" fill="#df7b32" opacity="0.86"/><rect x="584.1" y="362.0" width="35.2" height="0.0" fill="#df7b32" opacity="0.86"/><rect x="621.3" y="362.0" width="35.2" height="0.0" fill="#df7b32" opacity="0.86"/><rect x="658.6" y="357.8" width="35.2" height="4.2" fill="#df7b32" opacity="0.86"/><rect x="695.8" y="357.8" width="35.2" height="4.2" fill="#df7b32" opacity="0.86"/><text x="62.0" y="380" text-anchor="middle" font-family="Arial" font-size="11" fill="#627084">3.00</text><text x="229.5" y="380" text-anchor="middle" font-family="Arial" font-size="11" fill="#627084">7.75</text><text x="397.0" y="380" text-anchor="middle" font-family="Arial" font-size="11" fill="#627084">12.50</text><text x="564.5" y="380" text-anchor="middle" font-family="Arial" font-size="11" fill="#627084">17.25</text><text x="732.0" y="380" text-anchor="middle" font-family="Arial" font-size="11" fill="#627084">22.00</text></svg>