<svg xmlns="http://www.w3.org/2000/svg" viewBox="0 0 920 470"><rect width="920" height="470" fill="#ffffff"/><text x="460.0" y="30" text-anchor="middle" font-family="Arial" font-size="19" font-weight="700" fill="#172033">Метрики ошибок на кросс-валидации по подходам</text><line x1="170.0" y1="60" x2="170.0" y2="400" stroke="#d7dde6"/><text x="170.0" y="418" text-anchor="middle" font-family="Arial" font-size="11" fill="#627084">0.000</text><line x1="347.5" y1="60" x2="347.5" y2="400" stroke="#d7dde6"/><text x="347.5" y="418" text-anchor="middle" font-family="Arial" font-size="11" fill="#627084">0.030</text><line x1="525.0" y1="60" x2="525.0" y2="400" stroke="#d7dde6"/><text x="525.0" y="418" text-anchor="middle" font-family="Arial" font-size="11" fill="#627084">0.059</text><line x1="702.5" y1="60" x2="702.5" y2="400" stroke="#d7dde6"/><text x="702.5" y="418" text-anchor="middle" font-family="Arial" font-size="11" fill="#627084">0.089</text><line x1="880.0" y1="60" x2="880.0" y2="400" stroke="#d7dde6"/><text x="880.0" y="418" text-anchor="middle" font-family="Arial" font-size="11" fill="#627084">0.118</text><text x="160" y="102.8" text-anchor="end" font-family="Arial" font-size="12" fill="#172033">NLP</text><rect x="170" y="72.2" width="488.4" height="16.3" rx="3" fill="#3568a7" opacity="0.86"/><text x="663.4" y="85.0" font-family="Arial" font-size="10" fill="#172033">0.081</text><rect x="170" y="94.0" width="601.5" height="16.3" rx="3" fill="#df7b32" opacity="0.86"/><text x="776.5" y="106.7" font-family="Arial" font-size="10" fill="#172033">0.100</text><text x="160" y="170.8" text-anchor="end" font-family="Arial" font-size="12" fill="#172033">ответ + описание</text><rect x="170" y="140.2" width="489.3" height="16.3" rx="3" fill="#3568a7" opacity="0.86"/><text x="664.3" y="153.0" font-family="Arial" font-size="10" fill="#172033">0.082</text><rect x="170" y="162.0" width="587.7" height="16.3" rx="3" fill="#df7b32" opacity="0.86"/><text x="762.7" y="174.7" font-family="Arial" font-size="10" fill="#172033">0.098</text><text x="160" y="238.8" text-anchor="end" font-family="Arial" font-size="12" fill="#172033">NLP + EfficientNet</text><rect x="170" y="208.2" width="489.9" height="16.3" rx="3" fill="#3568a7" opacity="0.86"/><text x="664.9" y="221.0" font-family="Arial" font-size="10" fill="#172033">0.082</text><rect x="170" y="230.0" width="606.1" height="16.3" rx="3" fill="#df7b32" opacity="0.86"/><text x="781.1" y="242.7" font-family="Arial" font-size="10" fill="#172033">0.101</text><text x="160" y="306.8" text-anchor="end" font-family="Arial" font-size="12" fill="#172033">только ответ</text><rect x="170" y="276.2" width="525.7" height="16.3" rx="3" fill="#3568a7" opacity="0.86"/><text x="700.7" y="289.0" font-family="Arial" font-size="10" fill="#172033">0.088</text><rect x="170" y="298.0" width="625.1" height="16.3" rx="3" fill="#df7b32" opacity="0.86"/><text x="800.1" y="310.7" font-family="Arial" font-size="10" fill="#172033">0.104</text><text x="160" y="374.8" text-anchor="end" font-family="Arial" font-size="12" fill="#172033">только EfficientNet</text><rect x="170" y="344.2" width="525.9" height="16.3" rx="3" fill="#3568a7" opacity="0.86"/><text x="700.9" y="357.0" font-family="Arial" font-size="10" fill="#172033">0.088</text><rect x="170" y="366.0" width="633.9" height="16.3" rx="3" fill="#df7b32" opacity="0.86"/><text x="808.9" y="378.7" font-family="Arial" font-size="10" fill="#172033">0.106</text><rect x="170" y="424" width="12" height="12" fill="#3568a7"/><text x="188" y="434" font-family="Arial" font-size="12" fill="#172033">MAE</text><rect x="250" y="424" width="12" height="12" fill="#df7b32"/><text x="268" y="434" font-family="Arial" font-size="12" fill="#172033">RMSE</text></svg>