<svg xmlns="http://www.w3.org/2000/svg" viewBox="0 0 860 430"><rect width="860" height="430" fill="#ffffff"/><text x="430.0" y="30" text-anchor="middle" font-family="Arial" font-size="19" font-weight="700" fill="#172033">R2 на кросс-валидации по подходам</text><line x1="210.0" y1="58" x2="210.0" y2="376" stroke="#d7dde6"/><text x="210.0" y="394" text-anchor="middle" font-family="Arial" font-size="11" fill="#627084">0.00</text><line x1="364.0" y1="58" x2="364.0" y2="376" stroke="#d7dde6"/><text x="364.0" y="394" text-anchor="middle" font-family="Arial" font-size="11" fill="#627084">0.03</text><line x1="518.0" y1="58" x2="518.0" y2="376" stroke="#d7dde6"/><text x="518.0" y="394" text-anchor="middle" font-family="Arial" font-size="11" fill="#627084">0.07</text><line x1="672.0" y1="58" x2="672.0" y2="376" stroke="#d7dde6"/><text x="672.0" y="394" text-anchor="middle" font-family="Arial" font-size="11" fill="#627084">0.10</text><line x1="826.0" y1="58" x2="826.0" y2="376" stroke="#d7dde6"/><text x="826.0" y="394" text-anchor="middle" font-family="Arial" font-size="11" fill="#627084">0.13</text><text x="200" y="93.4" text-anchor="end" font-family="Arial" font-size="12" fill="#172033">ответ + описание</text><rect x="210" y="69.4" width="570.4" height="36.9" rx="3" fill="#4c9f70" opacity="0.86"/><text x="786.4" y="93.4" font-family="Arial" font-size="12" fill="#172033">0.12</text><text x="200" y="157.0" text-anchor="end" font-family="Arial" font-size="12" fill="#172033">NLP</text><rect x="210" y="133.0" width="374.8" height="36.9" rx="3" fill="#4c9f70" opacity="0.86"/><text x="590.8" y="157.0" font-family="Arial" font-size="12" fill="#172033">0.08</text><text x="200" y="220.6" text-anchor="end" font-family="Arial" font-size="12" fill="#172033">NLP + EfficientNet</text><rect x="210" y="196.6" width="312.4" height="36.9" rx="3" fill="#4c9f70" opacity="0.86"/><text x="528.4" y="220.6" font-family="Arial" font-size="12" fill="#172033">0.07</text><text x="200" y="284.2" text-anchor="end" font-family="Arial" font-size="12" fill="#172033">только ответ</text><rect x="210" y="260.2" width="52.5" height="36.9" rx="3" fill="#4c9f70" opacity="0.86"/><text x="268.5" y="284.2" font-family="Arial" font-size="12" fill="#172033">0.01</text><text x="200" y="347.8" text-anchor="end" font-family="Arial" font-size="12" fill="#172033">только EfficientNet</text><rect x="210" y="323.8" width="-73.0" height="36.9" rx="3" fill="#4c9f70" opacity="0.86"/><text x="143.0" y="347.8" font-family="Arial" font-size="12" fill="#172033">-0.02</text><text x="518.0" y="416" text-anchor="middle" font-family="Arial" font-size="13" fill="#627084">R2, больше лучше</text></svg>