<svg xmlns="http://www.w3.org/2000/svg" viewBox="0 0 760 420"><rect width="760" height="420" fill="#ffffff"/><text x="380.0" y="28" text-anchor="middle" font-family="Arial" font-size="18" font-weight="700" fill="#172033">Длина описания и сложность</text><line x1="62" y1="362" x2="732" y2="362" stroke="#172033" stroke-width="1.5"/><line x1="62" y1="362" x2="62" y2="54" stroke="#172033" stroke-width="1.5"/><text x="397.0" y="404" text-anchor="middle" font-family="Arial" font-size="13" fill="#627084">длина описания</text><text transform="translate(18,208.0) rotate(-90)" text-anchor="middle" font-family="Arial" font-size="13" fill="#627084">сложность</text><line x1="62" y1="362.0" x2="732" y2="362.0" stroke="#d7dde6"/><text x="54" y="366.0" text-anchor="end" font-family="Arial" font-size="11" fill="#627084">0.00</text><line x1="62" y1="285.0" x2="732" y2="285.0" stroke="#d7dde6"/><text x="54" y="289.0" text-anchor="end" font-family="Arial" font-size="11" fill="#627084">0.11</text><line x1="62" y1="208.0" x2="732" y2="208.0" stroke="#d7dde6"/><text x="54" y="212.0" text-anchor="end" font-family="Arial" font-size="11" fill="#627084">0.23</text><line x1="62" y1="131.0" x2="732" y2="131.0" stroke="#d7dde6"/><text x="54" y="135.0" text-anchor="end" font-family="Arial" font-size="11" fill="#627084">0.34</text><line x1="62" y1="54.0" x2="732" y2="54.0" stroke="#d7dde6"/><text x="54" y="58.0" text-anchor="end" font-family="Arial" font-size="11" fill="#627084">0.46</text><text x="62.0" y="380" text-anchor="middle" font-family="Arial" font-size="11" fill="#627084">6</text><text x="229.5" y="380" text-anchor="middle" font-family="Arial" font-size="11" fill="#627084">55</text><text x="397.0" y="380" text-anchor="middle" font-family="Arial" font-size="11" fill="#627084">104</text><text x="564.5" y="380" text-anchor="middle" font-family="Arial" font-size="11" fill="#627084">154</text><text x="732.0" y="380" text-anchor="middle" font-family="Arial" font-size="11" fill="#627084">203</text><circle cx="286.5" cy="70.8" r="3" fill="#4c9f70" opacity="0.58"/><circle cx="262.7" cy="90.6" r="3" fill="#4c9f70" opacity="0.58"/><circle cx="289.9" cy="109.2" r="3" fill="#4c9f70" opacity="0.58"/><circle cx="89.2" cy="223.6" r="3" fill="#4c9f70" opacity="0.58"/><circle cx="126.6" cy="113.3" r="3" fill="#4c9f70" opacity="0.58"/><circle cx="68.8" cy="299.3" r="3" fill="#4c9f70" opacity="0.58"/><circle cx="177.6" cy="232.5" r="3" fill="#4c9f70" opacity="0.58"/><circle cx="147.0" cy="110.8" r="3" fill="#4c9f70" opacity="0.58"/><circle cx="215.0" cy="136.9" r="3" fill="#4c9f70" opacity="0.58"/><circle cx="187.8" cy="165.9" r="3" fill="#4c9f70" opacity="0.58"/><circle cx="238.9" cy="185.2" r="3" fill="#4c9f70" opacity="0.58"/><circle cx="259.3" cy="146.2" r="3" fill="#4c9f70" opacity="0.58"/><circle cx="187.8" cy="258.8" r="3" fill="#4c9f70" opacity="0.58"/><circle cx="92.6" cy="133.6" r="3" fill="#4c9f70" opacity="0.58"/><circle cx="174.2" cy="103.3" r="3" fill="#4c9f70" opacity="0.58"/><circle cx="72.2" cy="248.2" r="3" fill="#4c9f70" opacity="0.58"/><circle cx="174.2" cy="75.7" r="3" fill="#4c9f70" opacity="0.58"/><circle cx="191.2" cy="148.8" r="3" fill="#4c9f70" opacity="0.58"/><circle cx="255.9" cy="131.7" r="3" fill="#4c9f70" opacity="0.58"/><circle cx="116.4" cy="169.3" r="3" fill="#4c9f70" opacity="0.58"/><circle cx="170.8" cy="120.7" r="3" fill="#4c9f70" opacity="0.58"/><circle cx="65.4" cy="287.8" r="3" fill="#4c9f70" opacity="0.58"/><circle cx="459.9" cy="97.9" r="3" fill="#4c9f70" opacity="0.58"/><circle cx="140.2" cy="232.8" r="3" fill="#4c9f70" opacity="0.58"/><circle cx="72.2" cy="242.7" r="3" fill="#4c9f70" opacity="0.58"/><circle cx="378.3" cy="140.9" r="3" fill="#4c9f70" opacity="0.58"/><circle cx="116.4" cy="121.7" r="3" fill="#4c9f70" opacity="0.58"/><circle cx="123.2" cy="135.1" r="3" fill="#4c9f70" opacity="0.58"/><circle cx="732.0" cy="178.8" r="3" fill="#4c9f70" opacity="0.58"/><circle cx="65.4" cy="348.6" r="3" fill="#4c9f70" opacity="0.58"/><circle cx="160.6" cy="266.1" r="3" fill="#4c9f70" opacity="0.58"/><circle cx="194.6" cy="137.0" r="3" fill="#4c9f70" opacity="0.58"/><circle cx="174.2" cy="168.9" r="3" fill="#4c9f70" opacity="0.58"/><circle cx="140.2" cy="250.7" r="3" fill="#4c9f70" opacity="0.58"/><circle cx="174.2" cy="167.8" r="3" fill="#4c9f70" opacity="0.58"/><circle cx="204.8" cy="138.7" r="3" fill="#4c9f70" opacity="0.58"/><circle cx="89.2" cy="276.0" r="3" fill="#4c9f70" opacity="0.58"/><circle cx="133.4" cy="146.1" r="3" fill="#4c9f70" opacity="0.58"/><circle cx="187.8" cy="223.5" r="3" fill="#4c9f70" opacity="0.58"/><circle cx="99.4" cy="204.6" r="3" fill="#4c9f70" opacity="0.58"/><circle cx="102.8" cy="231.6" r="3" fill="#4c9f70" opacity="0.58"/><circle cx="72.2" cy="78.8" r="3" fill="#4c9f70" opacity="0.58"/><circle cx="65.4" cy="247.6" r="3" fill="#4c9f70" opacity="0.58"/><circle cx="201.4" cy="91.5" r="3" fill="#4c9f70" opacity="0.58"/><circle cx="143.6" cy="153.3" r="3" fill="#4c9f70" opacity="0.58"/><circle cx="167.4" cy="145.0" r="3" fill="#4c9f70" opacity="0.58"/><circle cx="143.6" cy="252.6" r="3" fill="#4c9f70" opacity="0.58"/><circle cx="181.0" cy="95.8" r="3" fill="#4c9f70" opacity="0.58"/><circle cx="147.0" cy="136.7" r="3" fill="#4c9f70" opacity="0.58"/><circle cx="198.0" cy="131.7" r="3" fill="#4c9f70" opacity="0.58"/><circle cx="201.4" cy="238.8" r="3" fill="#4c9f70" opacity="0.58"/><circle cx="79.0" cy="252.3" r="3" fill="#4c9f70" opacity="0.58"/><circle cx="177.6" cy="103.9" r="3" fill="#4c9f70" opacity="0.58"/><circle cx="238.9" cy="176.8" r="3" fill="#4c9f70" opacity="0.58"/><circle cx="99.4" cy="263.4" r="3" fill="#4c9f70" opacity="0.58"/><circle cx="238.9" cy="201.0" r="3" fill="#4c9f70" opacity="0.58"/><circle cx="136.8" cy="104.3" r="3" fill="#4c9f70" opacity="0.58"/><circle cx="187.8" cy="209.2" r="3" fill="#4c9f70" opacity="0.58"/><circle cx="72.2" cy="198.2" r="3" fill="#4c9f70" opacity="0.58"/><circle cx="109.6" cy="207.2" r="3" fill="#4c9f70" opacity="0.58"/><circle cx="289.9" cy="188.9" r="3" fill="#4c9f70" opacity="0.58"/><circle cx="167.4" cy="129.5" r="3" fill="#4c9f70" opacity="0.58"/><circle cx="123.2" cy="159.8" r="3" fill="#4c9f70" opacity="0.58"/><circle cx="255.9" cy="225.6" r="3" fill="#4c9f70" opacity="0.58"/><circle cx="235.5" cy="187.4" r="3" fill="#4c9f70" opacity="0.58"/><circle cx="211.6" cy="212.1" r="3" fill="#4c9f70" opacity="0.58"/><circle cx="157.2" cy="129.8" r="3" fill="#4c9f70" opacity="0.58"/><circle cx="218.4" cy="131.1" r="3" fill="#4c9f70" opacity="0.58"/><circle cx="119.8" cy="233.5" r="3" fill="#4c9f70" opacity="0.58"/><circle cx="187.8" cy="217.8" r="3" fill="#4c9f70" opacity="0.58"/><circle cx="85.8" cy="232.5" r="3" fill="#4c9f70" opacity="0.58"/><circle cx="82.4" cy="122.6" r="3" fill="#4c9f70" opacity="0.58"/><circle cx="160.6" cy="118.0" r="3" fill="#4c9f70" opacity="0.58"/><circle cx="143.6" cy="151.9" r="3" fill="#4c9f70" opacity="0.58"/><circle cx="204.8" cy="145.5" r="3" fill="#4c9f70" opacity="0.58"/><circle cx="245.7" cy="240.2" r="3" fill="#4c9f70" opacity="0.58"/><circle cx="116.4" cy="202.4" r="3" fill="#4c9f70" opacity="0.58"/><circle cx="201.4" cy="212.4" r="3" fill="#4c9f70" opacity="0.58"/><circle cx="85.8" cy="267.2" r="3" fill="#4c9f70" opacity="0.58"/><circle cx="75.6" cy="220.0" r="3" fill="#4c9f70" opacity="0.58"/><circle cx="75.6" cy="246.2" r="3" fill="#4c9f70" opacity="0.58"/><circle cx="164.0" cy="312.5" r="3" fill="#4c9f70" opacity="0.58"/><circle cx="102.8" cy="199.8" r="3" fill="#4c9f70" opacity="0.58"/><circle cx="99.4" cy="239.2" r="3" fill="#4c9f70" opacity="0.58"/><circle cx="113.0" cy="284.9" r="3" fill="#4c9f70" opacity="0.58"/><circle cx="68.8" cy="332.8" r="3" fill="#4c9f70" opacity="0.58"/><circle cx="303.5" cy="107.9" r="3" fill="#4c9f70" opacity="0.58"/><circle cx="157.2" cy="131.5" r="3" fill="#4c9f70" opacity="0.58"/><circle cx="119.8" cy="234.8" r="3" fill="#4c9f70" opacity="0.58"/><circle cx="75.6" cy="183.5" r="3" fill="#4c9f70" opacity="0.58"/><circle cx="89.2" cy="164.7" r="3" fill="#4c9f70" opacity="0.58"/><circle cx="303.5" cy="265.3" r="3" fill="#4c9f70" opacity="0.58"/><circle cx="283.1" cy="227.1" r="3" fill="#4c9f70" opacity="0.58"/><circle cx="89.2" cy="208.6" r="3" fill="#4c9f70" opacity="0.58"/><circle cx="289.9" cy="307.4" r="3" fill="#4c9f70" opacity="0.58"/><circle cx="211.6" cy="155.7" r="3" fill="#4c9f70" opacity="0.58"/><circle cx="337.5" cy="241.1" r="3" fill="#4c9f70" opacity="0.58"/><circle cx="204.8" cy="198.2" r="3" fill="#4c9f70" opacity="0.58"/><circle cx="164.0" cy="186.2" r="3" fill="#4c9f70" opacity="0.58"/><circle cx="164.0" cy="200.7" r="3" fill="#4c9f70" opacity="0.58"/><circle cx="177.6" cy="255.1" r="3" fill="#4c9f70" opacity="0.58"/><circle cx="174.2" cy="322.5" r="3" fill="#4c9f70" opacity="0.58"/><circle cx="215.0" cy="306.8" r="3" fill="#4c9f70" opacity="0.58"/><circle cx="184.4" cy="204.8" r="3" fill="#4c9f70" opacity="0.58"/><circle cx="181.0" cy="168.5" r="3" fill="#4c9f70" opacity="0.58"/><circle cx="130.0" cy="224.4" r="3" fill="#4c9f70" opacity="0.58"/><circle cx="136.8" cy="201.4" r="3" fill="#4c9f70" opacity="0.58"/><circle cx="82.4" cy="231.0" r="3" fill="#4c9f70" opacity="0.58"/><circle cx="72.2" cy="197.8" r="3" fill="#4c9f70" opacity="0.58"/><circle cx="167.4" cy="146.5" r="3" fill="#4c9f70" opacity="0.58"/><circle cx="102.8" cy="265.4" r="3" fill="#4c9f70" opacity="0.58"/><circle cx="194.6" cy="185.0" r="3" fill="#4c9f70" opacity="0.58"/><circle cx="113.0" cy="294.7" r="3" fill="#4c9f70" opacity="0.58"/><circle cx="157.2" cy="226.8" r="3" fill="#4c9f70" opacity="0.58"/><circle cx="184.4" cy="239.7" r="3" fill="#4c9f70" opacity="0.58"/><circle cx="140.2" cy="267.3" r="3" fill="#4c9f70" opacity="0.58"/><circle cx="143.6" cy="310.1" r="3" fill="#4c9f70" opacity="0.58"/><circle cx="255.9" cy="196.4" r="3" fill="#4c9f70" opacity="0.58"/><circle cx="187.8" cy="235.4" r="3" fill="#4c9f70" opacity="0.58"/><circle cx="126.6" cy="220.3" r="3" fill="#4c9f70" opacity="0.58"/><circle cx="123.2" cy="259.6" r="3" fill="#4c9f70" opacity="0.58"/><circle cx="109.6" cy="226.5" r="3" fill="#4c9f70" opacity="0.58"/><circle cx="96.0" cy="353.5" r="3" fill="#4c9f70" opacity="0.58"/><circle cx="184.4" cy="172.0" r="3" fill="#4c9f70" opacity="0.58"/><circle cx="269.5" cy="235.3" r="3" fill="#4c9f70" opacity="0.58"/><circle cx="174.2" cy="208.9" r="3" fill="#4c9f70" opacity="0.58"/><circle cx="136.8" cy="312.4" r="3" fill="#4c9f70" opacity="0.58"/><circle cx="119.8" cy="323.2" r="3" fill="#4c9f70" opacity="0.58"/><circle cx="106.2" cy="236.1" r="3" fill="#4c9f70" opacity="0.58"/><circle cx="147.0" cy="281.4" r="3" fill="#4c9f70" opacity="0.58"/><circle cx="140.2" cy="286.8" r="3" fill="#4c9f70" opacity="0.58"/><circle cx="82.4" cy="356.2" r="3" fill="#4c9f70" opacity="0.58"/><circle cx="215.0" cy="150.7" r="3" fill="#4c9f70" opacity="0.58"/><circle cx="225.2" cy="186.2" r="3" fill="#4c9f70" opacity="0.58"/><circle cx="187.8" cy="246.2" r="3" fill="#4c9f70" opacity="0.58"/><circle cx="167.4" cy="107.8" r="3" fill="#4c9f70" opacity="0.58"/><circle cx="218.4" cy="294.9" r="3" fill="#4c9f70" opacity="0.58"/><circle cx="225.2" cy="150.4" r="3" fill="#4c9f70" opacity="0.58"/><circle cx="167.4" cy="324.1" r="3" fill="#4c9f70" opacity="0.58"/><circle cx="167.4" cy="189.2" r="3" fill="#4c9f70" opacity="0.58"/><circle cx="184.4" cy="140.8" r="3" fill="#4c9f70" opacity="0.58"/><circle cx="143.6" cy="241.0" r="3" fill="#4c9f70" opacity="0.58"/><circle cx="235.5" cy="178.9" r="3" fill="#4c9f70" opacity="0.58"/><circle cx="208.2" cy="151.9" r="3" fill="#4c9f70" opacity="0.58"/><circle cx="140.2" cy="312.5" r="3" fill="#4c9f70" opacity="0.58"/><circle cx="164.0" cy="117.8" r="3" fill="#4c9f70" opacity="0.58"/><circle cx="133.4" cy="287.8" r="3" fill="#4c9f70" opacity="0.58"/><circle cx="170.8" cy="154.3" r="3" fill="#4c9f70" opacity="0.58"/><circle cx="99.4" cy="240.7" r="3" fill="#4c9f70" opacity="0.58"/><circle cx="191.2" cy="153.2" r="3" fill="#4c9f70" opacity="0.58"/><circle cx="82.4" cy="284.8" r="3" fill="#4c9f70" opacity="0.58"/><circle cx="119.8" cy="213.7" r="3" fill="#4c9f70" opacity="0.58"/><circle cx="184.4" cy="319.2" r="3" fill="#4c9f70" opacity="0.58"/><circle cx="99.4" cy="336.5" r="3" fill="#4c9f70" opacity="0.58"/><circle cx="194.6" cy="182.0" r="3" fill="#4c9f70" opacity="0.58"/><circle cx="177.6" cy="137.2" r="3" fill="#4c9f70" opacity="0.58"/><circle cx="174.2" cy="149.0" r="3" fill="#4c9f70" opacity="0.58"/><circle cx="143.6" cy="279.6" r="3" fill="#4c9f70" opacity="0.58"/><circle cx="174.2" cy="237.4" r="3" fill="#4c9f70" opacity="0.58"/><circle cx="96.0" cy="201.3" r="3" fill="#4c9f70" opacity="0.58"/><circle cx="72.2" cy="289.1" r="3" fill="#4c9f70" opacity="0.58"/><circle cx="136.8" cy="252.0" r="3" fill="#4c9f70" opacity="0.58"/><circle cx="218.4" cy="260.1" r="3" fill="#4c9f70" opacity="0.58"/><circle cx="92.6" cy="272.7" r="3" fill="#4c9f70" opacity="0.58"/><circle cx="181.0" cy="201.1" r="3" fill="#4c9f70" opacity="0.58"/><circle cx="238.9" cy="207.8" r="3" fill="#4c9f70" opacity="0.58"/><circle cx="143.6" cy="322.7" r="3" fill="#4c9f70" opacity="0.58"/><circle cx="167.4" cy="182.0" r="3" fill="#4c9f70" opacity="0.58"/><circle cx="300.1" cy="228.6" r="3" fill="#4c9f70" opacity="0.58"/><circle cx="164.0" cy="270.9" r="3" fill="#4c9f70" opacity="0.58"/><circle cx="143.6" cy="352.2" r="3" fill="#4c9f70" opacity="0.58"/><circle cx="126.6" cy="252.5" r="3" fill="#4c9f70" opacity="0.58"/><circle cx="136.8" cy="164.3" r="3" fill="#4c9f70" opacity="0.58"/><circle cx="194.6" cy="236.8" r="3" fill="#4c9f70" opacity="0.58"/><circle cx="201.4" cy="317.6" r="3" fill="#4c9f70" opacity="0.58"/><circle cx="164.0" cy="204.9" r="3" fill="#4c9f70" opacity="0.58"/><circle cx="215.0" cy="142.9" r="3" fill="#4c9f70" opacity="0.58"/><circle cx="116.4" cy="343.5" r="3" fill="#4c9f70" opacity="0.58"/><circle cx="136.8" cy="285.9" r="3" fill="#4c9f70" opacity="0.58"/><circle cx="123.2" cy="197.4" r="3" fill="#4c9f70" opacity="0.58"/><circle cx="235.5" cy="170.8" r="3" fill="#4c9f70" opacity="0.58"/><circle cx="99.4" cy="304.7" r="3" fill="#4c9f70" opacity="0.58"/><circle cx="116.4" cy="304.5" r="3" fill="#4c9f70" opacity="0.58"/><circle cx="153.8" cy="130.7" r="3" fill="#4c9f70" opacity="0.58"/><circle cx="160.6" cy="241.1" r="3" fill="#4c9f70" opacity="0.58"/><circle cx="167.4" cy="183.2" r="3" fill="#4c9f70" opacity="0.58"/><circle cx="181.0" cy="271.9" r="3" fill="#4c9f70" opacity="0.58"/><circle cx="191.2" cy="290.7" r="3" fill="#4c9f70" opacity="0.58"/><circle cx="85.8" cy="312.8" r="3" fill="#4c9f70" opacity="0.58"/><circle cx="119.8" cy="343.8" r="3" fill="#4c9f70" opacity="0.58"/><circle cx="79.0" cy="331.8" r="3" fill="#4c9f70" opacity="0.58"/><circle cx="102.8" cy="225.7" r="3" fill="#4c9f70" opacity="0.58"/><circle cx="164.0" cy="252.0" r="3" fill="#4c9f70" opacity="0.58"/><circle cx="113.0" cy="319.0" r="3" fill="#4c9f70" opacity="0.58"/><circle cx="119.8" cy="265.8" r="3" fill="#4c9f70" opacity="0.58"/><circle cx="140.2" cy="306.8" r="3" fill="#4c9f70" opacity="0.58"/><circle cx="99.4" cy="300.1" r="3" fill="#4c9f70" opacity="0.58"/><circle cx="164.0" cy="150.0" r="3" fill="#4c9f70" opacity="0.58"/><circle cx="119.8" cy="174.7" r="3" fill="#4c9f70" opacity="0.58"/><circle cx="140.2" cy="275.8" r="3" fill="#4c9f70" opacity="0.58"/><circle cx="235.5" cy="255.9" r="3" fill="#4c9f70" opacity="0.58"/><circle cx="160.6" cy="147.9" r="3" fill="#4c9f70" opacity="0.58"/><circle cx="191.2" cy="198.5" r="3" fill="#4c9f70" opacity="0.58"/><circle cx="116.4" cy="340.8" r="3" fill="#4c9f70" opacity="0.58"/><circle cx="198.0" cy="274.5" r="3" fill="#4c9f70" opacity="0.58"/><circle cx="133.4" cy="300.2" r="3" fill="#4c9f70" opacity="0.58"/><circle cx="201.4" cy="282.5" r="3" fill="#4c9f70" opacity="0.58"/><circle cx="126.6" cy="307.7" r="3" fill="#4c9f70" opacity="0.58"/><circle cx="296.7" cy="150.2" r="3" fill="#4c9f70" opacity="0.58"/><circle cx="106.2" cy="287.8" r="3" fill="#4c9f70" opacity="0.58"/><circle cx="72.2" cy="287.7" r="3" fill="#4c9f70" opacity="0.58"/><circle cx="126.6" cy="198.5" r="3" fill="#4c9f70" opacity="0.58"/><circle cx="82.4" cy="329.4" r="3" fill="#4c9f70" opacity="0.58"/><circle cx="143.6" cy="189.3" r="3" fill="#4c9f70" opacity="0.58"/><circle cx="99.4" cy="303.9" r="3" fill="#4c9f70" opacity="0.58"/><circle cx="113.0" cy="100.6" r="3" fill="#4c9f70" opacity="0.58"/><circle cx="85.8" cy="298.9" r="3" fill="#4c9f70" opacity="0.58"/><circle cx="215.0" cy="235.1" r="3" fill="#4c9f70" opacity="0.58"/><circle cx="75.6" cy="353.3" r="3" fill="#4c9f70" opacity="0.58"/><circle cx="211.6" cy="63.1" r="3" fill="#4c9f70" opacity="0.58"/><circle cx="228.6" cy="191.7" r="3" fill="#4c9f70" opacity="0.58"/><circle cx="68.8" cy="342.8" r="3" fill="#4c9f70" opacity="0.58"/><circle cx="181.0" cy="213.1" r="3" fill="#4c9f70" opacity="0.58"/><circle cx="147.0" cy="244.2" r="3" fill="#4c9f70" opacity="0.58"/><circle cx="140.2" cy="248.0" r="3" fill="#4c9f70" opacity="0.58"/><circle cx="140.2" cy="83.4" r="3" fill="#4c9f70" opacity="0.58"/><circle cx="85.8" cy="325.8" r="3" fill="#4c9f70" opacity="0.58"/><circle cx="133.4" cy="165.1" r="3" fill="#4c9f70" opacity="0.58"/><circle cx="174.2" cy="201.7" r="3" fill="#4c9f70" opacity="0.58"/><circle cx="136.8" cy="287.6" r="3" fill="#4c9f70" opacity="0.58"/><circle cx="177.6" cy="143.8" r="3" fill="#4c9f70" opacity="0.58"/><circle cx="198.0" cy="282.1" r="3" fill="#4c9f70" opacity="0.58"/><circle cx="177.6" cy="155.2" r="3" fill="#4c9f70" opacity="0.58"/><circle cx="116.4" cy="292.6" r="3" fill="#4c9f70" opacity="0.58"/><circle cx="109.6" cy="270.1" r="3" fill="#4c9f70" opacity="0.58"/><circle cx="109.6" cy="288.1" r="3" fill="#4c9f70" opacity="0.58"/><circle cx="102.8" cy="285.5" r="3" fill="#4c9f70" opacity="0.58"/><circle cx="99.4" cy="305.3" r="3" fill="#4c9f70" opacity="0.58"/><circle cx="215.0" cy="176.9" r="3" fill="#4c9f70" opacity="0.58"/><circle cx="238.9" cy="252.9" r="3" fill="#4c9f70" opacity="0.58"/><circle cx="140.2" cy="271.0" r="3" fill="#4c9f70" opacity="0.58"/><circle cx="153.8" cy="344.3" r="3" fill="#4c9f70" opacity="0.58"/><circle cx="157.2" cy="252.8" r="3" fill="#4c9f70" opacity="0.58"/><circle cx="167.4" cy="331.2" r="3" fill="#4c9f70" opacity="0.58"/><circle cx="194.6" cy="229.8" r="3" fill="#4c9f70" opacity="0.58"/><circle cx="221.8" cy="188.9" r="3" fill="#4c9f70" opacity="0.58"/><circle cx="116.4" cy="168.0" r="3" fill="#4c9f70" opacity="0.58"/><circle cx="65.4" cy="324.5" r="3" fill="#4c9f70" opacity="0.58"/><circle cx="99.4" cy="260.9" r="3" fill="#4c9f70" opacity="0.58"/><circle cx="194.6" cy="272.7" r="3" fill="#4c9f70" opacity="0.58"/><circle cx="164.0" cy="130.3" r="3" fill="#4c9f70" opacity="0.58"/><circle cx="174.2" cy="264.9" r="3" fill="#4c9f70" opacity="0.58"/><circle cx="167.4" cy="168.6" r="3" fill="#4c9f70" opacity="0.58"/><circle cx="211.6" cy="276.0" r="3" fill="#4c9f70" opacity="0.58"/><circle cx="157.2" cy="216.3" r="3" fill="#4c9f70" opacity="0.58"/><circle cx="228.6" cy="177.2" r="3" fill="#4c9f70" opacity="0.58"/><circle cx="99.4" cy="330.0" r="3" fill="#4c9f70" opacity="0.58"/><circle cx="143.6" cy="205.2" r="3" fill="#4c9f70" opacity="0.58"/><circle cx="167.4" cy="193.3" r="3" fill="#4c9f70" opacity="0.58"/><circle cx="187.8" cy="230.4" r="3" fill="#4c9f70" opacity="0.58"/><circle cx="160.6" cy="303.6" r="3" fill="#4c9f70" opacity="0.58"/><circle cx="136.8" cy="173.8" r="3" fill="#4c9f70" opacity="0.58"/><circle cx="136.8" cy="323.7" r="3" fill="#4c9f70" opacity="0.58"/><circle cx="143.6" cy="211.7" r="3" fill="#4c9f70" opacity="0.58"/><circle cx="208.2" cy="310.4" r="3" fill="#4c9f70" opacity="0.58"/><circle cx="75.6" cy="222.9" r="3" fill="#4c9f70" opacity="0.58"/><circle cx="140.2" cy="224.2" r="3" fill="#4c9f70" opacity="0.58"/><circle cx="92.6" cy="331.4" r="3" fill="#4c9f70" opacity="0.58"/><circle cx="153.8" cy="201.5" r="3" fill="#4c9f70" opacity="0.58"/><circle cx="140.2" cy="165.2" r="3" fill="#4c9f70" opacity="0.58"/><circle cx="72.2" cy="276.1" r="3" fill="#4c9f70" opacity="0.58"/><circle cx="106.2" cy="291.8" r="3" fill="#4c9f70" opacity="0.58"/><circle cx="157.2" cy="235.7" r="3" fill="#4c9f70" opacity="0.58"/><circle cx="123.2" cy="194.8" r="3" fill="#4c9f70" opacity="0.58"/><circle cx="106.2" cy="341.0" r="3" fill="#4c9f70" opacity="0.58"/><circle cx="109.6" cy="330.5" r="3" fill="#4c9f70" opacity="0.58"/><circle cx="109.6" cy="251.4" r="3" fill="#4c9f70" opacity="0.58"/><circle cx="123.2" cy="267.3" r="3" fill="#4c9f70" opacity="0.58"/><circle cx="170.8" cy="110.6" r="3" fill="#4c9f70" opacity="0.58"/><circle cx="153.8" cy="213.0" r="3" fill="#4c9f70" opacity="0.58"/><circle cx="116.4" cy="235.2" r="3" fill="#4c9f70" opacity="0.58"/><circle cx="109.6" cy="314.3" r="3" fill="#4c9f70" opacity="0.58"/><circle cx="96.0" cy="182.2" r="3" fill="#4c9f70" opacity="0.58"/><circle cx="99.4" cy="167.0" r="3" fill="#4c9f70" opacity="0.58"/><circle cx="143.6" cy="346.2" r="3" fill="#4c9f70" opacity="0.58"/><circle cx="133.4" cy="295.3" r="3" fill="#4c9f70" opacity="0.58"/><circle cx="106.2" cy="156.5" r="3" fill="#4c9f70" opacity="0.58"/><circle cx="109.6" cy="251.5" r="3" fill="#4c9f70" opacity="0.58"/><circle cx="113.0" cy="332.7" r="3" fill="#4c9f70" opacity="0.58"/><circle cx="130.0" cy="205.9" r="3" fill="#4c9f70" opacity="0.58"/><circle cx="102.8" cy="317.3" r="3" fill="#4c9f70" opacity="0.58"/><circle cx="194.6" cy="333.3" r="3" fill="#4c9f70" opacity="0.58"/><circle cx="130.0" cy="229.9" r="3" fill="#4c9f70" opacity="0.58"/><circle cx="113.0" cy="211.2" r="3" fill="#4c9f70" opacity="0.58"/><circle cx="99.4" cy="95.3" r="3" fill="#4c9f70" opacity="0.58"/><circle cx="102.8" cy="185.3" r="3" fill="#4c9f70" opacity="0.58"/><circle cx="140.2" cy="347.6" r="3" fill="#4c9f70" opacity="0.58"/><circle cx="140.2" cy="221.5" r="3" fill="#4c9f70" opacity="0.58"/><circle cx="92.6" cy="198.6" r="3" fill="#4c9f70" opacity="0.58"/><circle cx="140.2" cy="248.6" r="3" fill="#4c9f70" opacity="0.58"/><circle cx="99.4" cy="307.5" r="3" fill="#4c9f70" opacity="0.58"/><circle cx="147.0" cy="208.0" r="3" fill="#4c9f70" opacity="0.58"/><circle cx="116.4" cy="258.5" r="3" fill="#4c9f70" opacity="0.58"/><circle cx="99.4" cy="183.0" r="3" fill="#4c9f70" opacity="0.58"/><circle cx="109.6" cy="208.9" r="3" fill="#4c9f70" opacity="0.58"/><circle cx="113.0" cy="93.4" r="3" fill="#4c9f70" opacity="0.58"/><circle cx="130.0" cy="298.0" r="3" fill="#4c9f70" opacity="0.58"/><circle cx="126.6" cy="169.1" r="3" fill="#4c9f70" opacity="0.58"/><circle cx="167.4" cy="163.5" r="3" fill="#4c9f70" opacity="0.58"/><circle cx="167.4" cy="78.5" r="3" fill="#4c9f70" opacity="0.58"/><circle cx="113.0" cy="136.6" r="3" fill="#4c9f70" opacity="0.58"/><circle cx="62.0" cy="334.0" r="3" fill="#4c9f70" opacity="0.58"/><circle cx="177.6" cy="250.1" r="3" fill="#4c9f70" opacity="0.58"/><circle cx="126.6" cy="54.0" r="3" fill="#4c9f70" opacity="0.58"/><circle cx="123.2" cy="227.7" r="3" fill="#4c9f70" opacity="0.58"/><circle cx="133.4" cy="329.1" r="3" fill="#4c9f70" opacity="0.58"/><circle cx="170.8" cy="218.3" r="3" fill="#4c9f70" opacity="0.58"/><circle cx="150.4" cy="266.2" r="3" fill="#4c9f70" opacity="0.58"/><circle cx="126.6" cy="351.4" r="3" fill="#4c9f70" opacity="0.58"/><circle cx="96.0" cy="219.7" r="3" fill="#4c9f70" opacity="0.58"/><circle cx="126.6" cy="211.6" r="3" fill="#4c9f70" opacity="0.58"/><circle cx="187.8" cy="304.9" r="3" fill="#4c9f70" opacity="0.58"/><circle cx="102.8" cy="78.2" r="3" fill="#4c9f70" opacity="0.58"/><circle cx="102.8" cy="306.9" r="3" fill="#4c9f70" opacity="0.58"/><circle cx="68.8" cy="360.5" r="3" fill="#4c9f70" opacity="0.58"/><circle cx="92.6" cy="283.8" r="3" fill="#4c9f70" opacity="0.58"/><circle cx="136.8" cy="362.0" r="3" fill="#4c9f70" opacity="0.58"/></svg>