<svg xmlns="http://www.w3.org/2000/svg" viewBox="0 0 760 420"><rect width="760" height="420" fill="#ffffff"/><text x="380.0" y="28" text-anchor="middle" font-family="Arial" font-size="18" font-weight="700" fill="#172033">Распределение сложности</text><line x1="62" y1="362" x2="732" y2="362" stroke="#172033" stroke-width="1.5"/><line x1="62" y1="362" x2="62" y2="54" stroke="#172033" stroke-width="1.5"/><text x="397.0" y="404" text-anchor="middle" font-family="Arial" font-size="13" fill="#627084">сложность</text><text transform="translate(18,208.0) rotate(-90)" text-anchor="middle" font-family="Arial" font-size="13" fill="#627084">количество</text><line x1="62" y1="362.0" x2="732" y2="362.0" stroke="#d7dde6" stroke-width="1"/><text x="54" y="366.0" text-anchor="end" font-family="Arial" font-size="11" fill="#627084">0</text><line x1="62" y1="285.0" x2="732" y2="285.0" stroke="#d7dde6" stroke-width="1"/><text x="54" y="289.0" text-anchor="end" font-family="Arial" font-size="11" fill="#627084">6</text><line x1="62" y1="208.0" x2="732" y2="208.0" stroke="#d7dde6" stroke-width="1"/><text x="54" y="212.0" text-anchor="end" font-family="Arial" font-size="11" fill="#627084">12</text><line x1="62" y1="131.0" x2="732" y2="131.0" stroke="#d7dde6" stroke-width="1"/><text x="54" y="135.0" text-anchor="end" font-family="Arial" font-size="11" fill="#627084">18</text><line x1="62" y1="54.0" x2="732" y2="54.0" stroke="#d7dde6" stroke-width="1"/><text x="54" y="58.0" text-anchor="end" font-family="Arial" font-size="11" fill="#627084">24</text><rect x="63.0" y="272.2" width="25.9" height="89.8" fill="#3568a7" opacity="0.86"/><rect x="90.9" y="233.7" width="25.9" height="128.3" fill="#3568a7" opacity="0.86"/><rect x="118.8" y="169.5" width="25.9" height="192.5" fill="#3568a7" opacity="0.86"/><rect x="146.8" y="208.0" width="25.9" height="154.0" fill="#3568a7" opacity="0.86"/><rect x="174.7" y="118.2" width="25.9" height="243.8" fill="#3568a7" opacity="0.86"/><rect x="202.6" y="156.7" width="25.9" height="205.3" fill="#3568a7" opacity="0.86"/><rect x="230.5" y="182.3" width="25.9" height="179.7" fill="#3568a7" opacity="0.86"/><rect x="258.4" y="143.8" width="25.9" height="218.2" fill="#3568a7" opacity="0.86"/><rect x="286.3" y="118.2" width="25.9" height="243.8" fill="#3568a7" opacity="0.86"/><rect x="314.2" y="92.5" width="25.9" height="269.5" fill="#3568a7" opacity="0.86"/><rect x="342.2" y="79.7" width="25.9" height="282.3" fill="#3568a7" opacity="0.86"/><rect x="370.1" y="118.2" width="25.9" height="243.8" fill="#3568a7" opacity="0.86"/><rect x="398.0" y="54.0" width="25.9" height="308.0" fill="#3568a7" opacity="0.86"/><rect x="425.9" y="156.7" width="25.9" height="205.3" fill="#3568a7" opacity="0.86"/><rect x="453.8" y="208.0" width="25.9" height="154.0" fill="#3568a7" opacity="0.86"/><rect x="481.8" y="169.5" width="25.9" height="192.5" fill="#3568a7" opacity="0.86"/><rect x="509.7" y="105.3" width="25.9" height="256.7" fill="#3568a7" opacity="0.86"/><rect x="537.6" y="156.7" width="25.9" height="205.3" fill="#3568a7" opacity="0.86"/><rect x="565.5" y="272.2" width="25.9" height="89.8" fill="#3568a7" opacity="0.86"/><rect x="593.4" y="259.3" width="25.9" height="102.7" fill="#3568a7" opacity="0.86"/><rect x="621.3" y="259.3" width="25.9" height="102.7" fill="#3568a7" opacity="0.86"/><rect x="649.2" y="323.5" width="25.9" height="38.5" fill="#3568a7" opacity="0.86"/><rect x="677.2" y="297.8" width="25.9" height="64.2" fill="#3568a7" opacity="0.86"/><rect x="705.1" y="336.3" width="25.9" height="25.7" fill="#3568a7" opacity="0.86"/><text x="62.0" y="380" text-anchor="middle" font-family="Arial" font-size="11" fill="#627084">0.00</text><text x="229.5" y="380" text-anchor="middle" font-family="Arial" font-size="11" fill="#627084">0.11</text><text x="397.0" y="380" text-anchor="middle" font-family="Arial" font-size="11" fill="#627084">0.23</text><text x="564.5" y="380" text-anchor="middle" font-family="Arial" font-size="11" fill="#627084">0.34</text><text x="732.0" y="380" text-anchor="middle" font-family="Arial" font-size="11" fill="#627084">0.46</text></svg>