<svg xmlns="http://www.w3.org/2000/svg" viewBox="0 0 860 430"><rect width="860" height="430" fill="#ffffff"/><text x="430.0" y="30" text-anchor="middle" font-family="Arial" font-size="19" font-weight="700" fill="#172033">MAE на отложенной выборке по подходам</text><line x1="210.0" y1="58" x2="210.0" y2="376" stroke="#d7dde6"/><text x="210.0" y="394" text-anchor="middle" font-family="Arial" font-size="11" fill="#627084">0.000</text><line x1="364.0" y1="58" x2="364.0" y2="376" stroke="#d7dde6"/><text x="364.0" y="394" text-anchor="middle" font-family="Arial" font-size="11" fill="#627084">0.022</text><line x1="518.0" y1="58" x2="518.0" y2="376" stroke="#d7dde6"/><text x="518.0" y="394" text-anchor="middle" font-family="Arial" font-size="11" fill="#627084">0.044</text><line x1="672.0" y1="58" x2="672.0" y2="376" stroke="#d7dde6"/><text x="672.0" y="394" text-anchor="middle" font-family="Arial" font-size="11" fill="#627084">0.066</text><line x1="826.0" y1="58" x2="826.0" y2="376" stroke="#d7dde6"/><text x="826.0" y="394" text-anchor="middle" font-family="Arial" font-size="11" fill="#627084">0.087</text><text x="200" y="93.4" text-anchor="end" font-family="Arial" font-size="12" fill="#172033">ответ + описание</text><rect x="210" y="69.4" width="528.2" height="36.9" rx="3" fill="#c94f4f" opacity="0.86"/><text x="744.2" y="93.4" font-family="Arial" font-size="12" fill="#172033">0.075</text><text x="200" y="157.0" text-anchor="end" font-family="Arial" font-size="12" fill="#172033">только EfficientNet</text><rect x="210" y="133.0" width="554.5" height="36.9" rx="3" fill="#c94f4f" opacity="0.86"/><text x="770.5" y="157.0" font-family="Arial" font-size="12" fill="#172033">0.079</text><text x="200" y="220.6" text-anchor="end" font-family="Arial" font-size="12" fill="#172033">NLP</text><rect x="210" y="196.6" width="562.0" height="36.9" rx="3" fill="#c94f4f" opacity="0.86"/><text x="778.0" y="220.6" font-family="Arial" font-size="12" fill="#172033">0.080</text><text x="200" y="284.2" text-anchor="end" font-family="Arial" font-size="12" fill="#172033">NLP + EfficientNet</text><rect x="210" y="260.2" width="564.2" height="36.9" rx="3" fill="#c94f4f" opacity="0.86"/><text x="780.2" y="284.2" font-family="Arial" font-size="12" fill="#172033">0.080</text><text x="200" y="347.8" text-anchor="end" font-family="Arial" font-size="12" fill="#172033">только ответ</text><rect x="210" y="323.8" width="570.4" height="36.9" rx="3" fill="#c94f4f" opacity="0.86"/><text x="786.4" y="347.8" font-family="Arial" font-size="12" fill="#172033">0.081</text><text x="518.0" y="416" text-anchor="middle" font-family="Arial" font-size="13" fill="#627084">MAE, меньше лучше</text></svg>