<svg xmlns="http://www.w3.org/2000/svg" viewBox="0 0 860 520"><rect width="860" height="520" fill="#ffffff"/><text x="430.0" y="30" text-anchor="middle" font-family="Arial" font-size="19" font-weight="700" fill="#172033">Главные признаки по permutation importance</text><line x1="210.0" y1="58" x2="210.0" y2="466" stroke="#d7dde6"/><text x="210.0" y="484" text-anchor="middle" font-family="Arial" font-size="11" fill="#627084">0.0000</text><line x1="364.0" y1="58" x2="364.0" y2="466" stroke="#d7dde6"/><text x="364.0" y="484" text-anchor="middle" font-family="Arial" font-size="11" fill="#627084">0.0028</text><line x1="518.0" y1="58" x2="518.0" y2="466" stroke="#d7dde6"/><text x="518.0" y="484" text-anchor="middle" font-family="Arial" font-size="11" fill="#627084">0.0055</text><line x1="672.0" y1="58" x2="672.0" y2="466" stroke="#d7dde6"/><text x="672.0" y="484" text-anchor="middle" font-family="Arial" font-size="11" fill="#627084">0.0083</text><line x1="826.0" y1="58" x2="826.0" y2="466" stroke="#d7dde6"/><text x="826.0" y="484" text-anchor="middle" font-family="Arial" font-size="11" fill="#627084">0.0110</text><text x="200" y="80.7" text-anchor="end" font-family="Arial" font-size="12" fill="#172033">lemma description</text><rect x="210" y="65.3" width="570.4" height="23.7" rx="3" fill="#4c9f70" opacity="0.86"/><text x="786.4" y="80.7" font-family="Arial" font-size="12" fill="#172033">0.0102</text><text x="200" y="121.5" text-anchor="end" font-family="Arial" font-size="12" fill="#172033">desc len</text><rect x="210" y="106.1" width="504.9" height="23.7" rx="3" fill="#4c9f70" opacity="0.86"/><text x="720.9" y="121.5" font-family="Arial" font-size="12" fill="#172033">0.0090</text><text x="200" y="162.3" text-anchor="end" font-family="Arial" font-size="12" fill="#172033">lemma answer</text><rect x="210" y="146.9" width="199.1" height="23.7" rx="3" fill="#4c9f70" opacity="0.86"/><text x="415.1" y="162.3" font-family="Arial" font-size="12" fill="#172033">0.0036</text><text x="200" y="203.1" text-anchor="end" font-family="Arial" font-size="12" fill="#172033">comma количество</text><rect x="210" y="187.7" width="191.0" height="23.7" rx="3" fill="#4c9f70" opacity="0.86"/><text x="407.0" y="203.1" font-family="Arial" font-size="12" fill="#172033">0.0034</text><text x="200" y="243.9" text-anchor="end" font-family="Arial" font-size="12" fill="#172033">ans len</text><rect x="210" y="228.5" width="148.2" height="23.7" rx="3" fill="#4c9f70" opacity="0.86"/><text x="364.2" y="243.9" font-family="Arial" font-size="12" fill="#172033">0.0027</text><text x="200" y="284.7" text-anchor="end" font-family="Arial" font-size="12" fill="#172033">is multi word ans</text><rect x="210" y="269.3" width="71.9" height="23.7" rx="3" fill="#4c9f70" opacity="0.86"/><text x="287.9" y="284.7" font-family="Arial" font-size="12" fill="#172033">0.0013</text><text x="200" y="325.5" text-anchor="end" font-family="Arial" font-size="12" fill="#172033">has pos prep</text><rect x="210" y="310.1" width="23.1" height="23.7" rx="3" fill="#4c9f70" opacity="0.86"/><text x="239.1" y="325.5" font-family="Arial" font-size="12" fill="#172033">0.0004</text><text x="200" y="366.3" text-anchor="end" font-family="Arial" font-size="12" fill="#172033">variant количество</text><rect x="210" y="350.9" width="15.7" height="23.7" rx="3" fill="#4c9f70" opacity="0.86"/><text x="231.7" y="366.3" font-family="Arial" font-size="12" fill="#172033">0.0003</text><text x="200" y="407.1" text-anchor="end" font-family="Arial" font-size="12" fill="#172033">effnet feat 1080</text><rect x="210" y="391.7" width="9.1" height="23.7" rx="3" fill="#4c9f70" opacity="0.86"/><text x="225.1" y="407.1" font-family="Arial" font-size="12" fill="#172033">0.0002</text><text x="200" y="447.9" text-anchor="end" font-family="Arial" font-size="12" fill="#172033">effnet feat 812</text><rect x="210" y="432.5" width="8.5" height="23.7" rx="3" fill="#4c9f70" opacity="0.86"/><text x="224.5" y="447.9" font-family="Arial" font-size="12" fill="#172033">0.0002</text><text x="518.0" y="506" text-anchor="middle" font-family="Arial" font-size="13" fill="#627084">Рост MAE после перемешивания признака</text></svg>