<svg xmlns="http://www.w3.org/2000/svg" viewBox="0 0 760 420"><rect width="760" height="420" fill="#ffffff"/><text x="380.0" y="28" text-anchor="middle" font-family="Arial" font-size="18" font-weight="700" fill="#172033">Сложность по числу вариантов ответа</text><line x1="62" y1="362" x2="732" y2="362" stroke="#172033" stroke-width="1.5"/><line x1="62" y1="362" x2="62" y2="54" stroke="#172033" stroke-width="1.5"/><text x="397.0" y="404" text-anchor="middle" font-family="Arial" font-size="13" fill="#627084">variant_количество</text><text transform="translate(18,208.0) rotate(-90)" text-anchor="middle" font-family="Arial" font-size="13" fill="#627084">сложность</text><line x1="62" y1="362.0" x2="732" y2="362.0" stroke="#d7dde6"/><text x="54" y="366.0" text-anchor="end" font-family="Arial" font-size="11" fill="#627084">0.00</text><line x1="62" y1="285.0" x2="732" y2="285.0" stroke="#d7dde6"/><text x="54" y="289.0" text-anchor="end" font-family="Arial" font-size="11" fill="#627084">0.11</text><line x1="62" y1="208.0" x2="732" y2="208.0" stroke="#d7dde6"/><text x="54" y="212.0" text-anchor="end" font-family="Arial" font-size="11" fill="#627084">0.23</text><line x1="62" y1="131.0" x2="732" y2="131.0" stroke="#d7dde6"/><text x="54" y="135.0" text-anchor="end" font-family="Arial" font-size="11" fill="#627084">0.34</text><line x1="62" y1="54.0" x2="732" y2="54.0" stroke="#d7dde6"/><text x="54" y="58.0" text-anchor="end" font-family="Arial" font-size="11" fill="#627084">0.46</text><line x1="129.0" y1="362.0" x2="129.0" y2="54.0" stroke="#172033"/><rect x="110.0" y="174.2" width="38.0" height="108.9" fill="#df7b32" opacity="0.75" stroke="#172033"/><line x1="110.0" y1="228.6" x2="148.0" y2="228.6" stroke="#172033" stroke-width="2"/><text x="129.0" y="380" text-anchor="middle" font-family="Arial" font-size="10" fill="#627084">1</text><line x1="263.0" y1="351.4" x2="263.0" y2="100.6" stroke="#172033"/><rect x="244.0" y="139.1" width="38.0" height="166.3" fill="#df7b32" opacity="0.75" stroke="#172033"/><line x1="244.0" y1="191.9" x2="282.0" y2="191.9" stroke="#172033" stroke-width="2"/><text x="263.0" y="380" text-anchor="middle" font-family="Arial" font-size="10" fill="#627084">2</text><line x1="397.0" y1="246.2" x2="397.0" y2="129.5" stroke="#172033"/><rect x="378.0" y="183.1" width="38.0" height="51.7" fill="#df7b32" opacity="0.75" stroke="#172033"/><line x1="378.0" y1="216.0" x2="416.0" y2="216.0" stroke="#172033" stroke-width="2"/><text x="397.0" y="380" text-anchor="middle" font-family="Arial" font-size="10" fill="#627084">3</text><line x1="531.0" y1="336.5" x2="531.0" y2="90.6" stroke="#172033"/><rect x="512.0" y="107.9" width="38.0" height="128.9" fill="#df7b32" opacity="0.75" stroke="#172033"/><line x1="512.0" y1="167.8" x2="550.0" y2="167.8" stroke="#172033" stroke-width="2"/><text x="531.0" y="380" text-anchor="middle" font-family="Arial" font-size="10" fill="#627084">4</text><line x1="665.0" y1="146.2" x2="665.0" y2="146.2" stroke="#172033"/><rect x="646.0" y="146.2" width="38.0" height="1.0" fill="#df7b32" opacity="0.75" stroke="#172033"/><line x1="646.0" y1="146.2" x2="684.0" y2="146.2" stroke="#172033" stroke-width="2"/><text x="665.0" y="380" text-anchor="middle" font-family="Arial" font-size="10" fill="#627084">5</text></svg>